<?xml version="1.0" encoding="UTF-8" standalone="no"?>
<!DOCTYPE svg PUBLIC "-//W3C//DTD SVG 1.1//EN"
 "http://www.w3.org/Graphics/SVG/1.1/DTD/svg11.dtd">
<!-- Generated by graphviz version 11.0.0 (20240428.1522)
 -->
<!-- Title: 4_6_9 Pages: 1 -->
<svg width="403pt" height="476pt"
 viewBox="0.00 0.00 402.50 476.00" xmlns="http://www.w3.org/2000/svg" xmlns:xlink="http://www.w3.org/1999/xlink">
<g id="graph0" class="graph" transform="scale(1 1) rotate(0) translate(4 472)">
<title>4_6_9</title>
<polygon fill="white" stroke="none" points="-4,4 -4,-472 398.5,-472 398.5,4 -4,4"/>
<!-- &#10216;4, 6, 9&#10217; -->
<g id="node1" class="node">
<title>&#10216;4, 6, 9&#10217;</title>
<text text-anchor="middle" x="74.51" y="-444.95" font-family="Times,serif" font-size="14.00">⟨4, 6, 9⟩</text>
</g>
<!-- 1 -->
<g id="node2" class="node">
<title>1</title>
<ellipse fill="lightgrey" stroke="black" cx="159.51" cy="-450" rx="36" ry="18"/>
<text text-anchor="middle" x="159.51" y="-444.95" font-family="Times,serif" font-size="14.00">(0,0,0)</text>
</g>
<!-- 2 -->
<g id="node3" class="node">
<title>2</title>
<ellipse fill="none" stroke="black" cx="69.51" cy="-378" rx="36" ry="18"/>
<text text-anchor="middle" x="69.51" y="-372.95" font-family="Times,serif" font-size="14.00">(0,0,1)</text>
</g>
<!-- 1&#45;&#45;2 -->
<g id="edge1" class="edge">
<title>1&#45;&#45;2</title>
<path fill="none" stroke="black" d="M140.86,-434.5C125.52,-422.56 103.86,-405.72 88.44,-393.73"/>
</g>
<!-- 3 -->
<g id="node4" class="node">
<title>3</title>
<ellipse fill="none" stroke="black" cx="159.51" cy="-378" rx="36" ry="18"/>
<text text-anchor="middle" x="159.51" y="-372.95" font-family="Times,serif" font-size="14.00">(0,1,0)</text>
</g>
<!-- 1&#45;&#45;3 -->
<g id="edge2" class="edge">
<title>1&#45;&#45;3</title>
<path fill="none" stroke="black" d="M159.51,-431.7C159.51,-420.85 159.51,-406.92 159.51,-396.1"/>
</g>
<!-- 5 -->
<g id="node6" class="node">
<title>5</title>
<ellipse fill="lightgrey" stroke="black" cx="249.51" cy="-378" rx="36" ry="18"/>
<text text-anchor="middle" x="249.51" y="-372.95" font-family="Times,serif" font-size="14.00">(1,0,0)</text>
</g>
<!-- 1&#45;&#45;5 -->
<g id="edge3" class="edge">
<title>1&#45;&#45;5</title>
<path fill="none" stroke="black" d="M178.15,-434.5C193.5,-422.56 215.15,-405.72 230.57,-393.73"/>
</g>
<!-- 4 -->
<g id="node5" class="node">
<title>4</title>
<ellipse fill="none" stroke="black" cx="69.51" cy="-306" rx="36" ry="18"/>
<text text-anchor="middle" x="69.51" y="-300.95" font-family="Times,serif" font-size="14.00">(0,1,1)</text>
</g>
<!-- 2&#45;&#45;4 -->
<g id="edge4" class="edge">
<title>2&#45;&#45;4</title>
<path fill="none" stroke="black" d="M69.51,-359.7C69.51,-348.85 69.51,-334.92 69.51,-324.1"/>
</g>
<!-- 6 -->
<g id="node7" class="node">
<title>6</title>
<ellipse fill="lightgrey" stroke="black" cx="159.51" cy="-306" rx="36" ry="18"/>
<text text-anchor="middle" x="159.51" y="-300.95" font-family="Times,serif" font-size="14.00">(1,0,1)</text>
</g>
<!-- 2&#45;&#45;6 -->
<!-- 3&#45;&#45;4 -->
<g id="edge6" class="edge">
<title>3&#45;&#45;4</title>
<path fill="none" stroke="black" d="M140.86,-362.5C125.52,-350.56 103.86,-333.72 88.44,-321.73"/>
</g>
<!-- 8 -->
<g id="node9" class="node">
<title>8</title>
<ellipse fill="lightgrey" stroke="black" cx="249.51" cy="-306" rx="36" ry="18"/>
<text text-anchor="middle" x="249.51" y="-300.95" font-family="Times,serif" font-size="14.00">(1,1,0)</text>
</g>
<!-- 3&#45;&#45;8 -->
<g id="edge7" class="edge">
<title>3&#45;&#45;8</title>
<path fill="none" stroke="black" d="M178.15,-362.5C193.5,-350.56 215.15,-333.72 230.57,-321.73"/>
</g>
<!-- 9 -->
<g id="node10" class="node">
<title>9</title>
<ellipse fill="lightgrey" stroke="black" cx="140.51" cy="-234" rx="36" ry="18"/>
<text text-anchor="middle" x="140.51" y="-228.95" font-family="Times,serif" font-size="14.00">(1,1,1)</text>
</g>
<!-- 4&#45;&#45;9 -->
<g id="edge11" class="edge">
<title>4&#45;&#45;9</title>
<path fill="none" stroke="black" d="M85.26,-289.46C97.03,-277.86 113.04,-262.08 124.79,-250.49"/>
</g>
<!-- 5&#45;&#45;6 -->
<g id="edge8" class="edge">
<title>5&#45;&#45;6</title>
<path fill="none" stroke="black" d="M230.86,-362.5C215.52,-350.56 193.86,-333.72 178.44,-321.73"/>
</g>
<!-- 5&#45;&#45;8 -->
<g id="edge9" class="edge">
<title>5&#45;&#45;8</title>
<path fill="none" stroke="black" d="M249.51,-359.7C249.51,-348.85 249.51,-334.92 249.51,-324.1"/>
</g>
<!-- 11 -->
<g id="node12" class="node">
<title>11</title>
<ellipse fill="none" stroke="black" cx="339.51" cy="-306" rx="36" ry="18"/>
<text text-anchor="middle" x="339.51" y="-300.95" font-family="Times,serif" font-size="14.00">(2,0,0)</text>
</g>
<!-- 5&#45;&#45;11 -->
<g id="edge10" class="edge">
<title>5&#45;&#45;11</title>
<path fill="none" stroke="black" d="M268.15,-362.5C283.5,-350.56 305.15,-333.72 320.57,-321.73"/>
</g>
<!-- 7 -->
<g id="node8" class="node">
<title>7</title>
<ellipse fill="none" stroke="black" cx="50.51" cy="-234" rx="36" ry="18"/>
<text text-anchor="middle" x="50.51" y="-228.95" font-family="Times,serif" font-size="14.00">(1,0,2)</text>
</g>
<!-- 6&#45;&#45;7 -->
<g id="edge12" class="edge">
<title>6&#45;&#45;7</title>
<path fill="none" stroke="black" d="M137.97,-291.17C118.86,-278.9 91.09,-261.06 72,-248.8"/>
</g>
<!-- 6&#45;&#45;9 -->
<g id="edge13" class="edge">
<title>6&#45;&#45;9</title>
<path fill="none" stroke="black" d="M154.81,-287.7C151.86,-276.85 148.08,-262.92 145.15,-252.1"/>
</g>
<!-- 12 -->
<g id="node13" class="node">
<title>12</title>
<ellipse fill="lightgrey" stroke="black" cx="230.51" cy="-234" rx="36" ry="18"/>
<text text-anchor="middle" x="230.51" y="-228.95" font-family="Times,serif" font-size="14.00">(2,0,1)</text>
</g>
<!-- 6&#45;&#45;12 -->
<g id="edge14" class="edge">
<title>6&#45;&#45;12</title>
<path fill="none" stroke="black" d="M175.26,-289.46C187.03,-277.86 203.04,-262.08 214.79,-250.49"/>
</g>
<!-- 10 -->
<g id="node11" class="node">
<title>10</title>
<ellipse fill="lightgrey" stroke="black" cx="50.51" cy="-162" rx="36" ry="18"/>
<text text-anchor="middle" x="50.51" y="-156.95" font-family="Times,serif" font-size="14.00">(1,1,2)</text>
</g>
<!-- 7&#45;&#45;10 -->
<!-- 13 -->
<g id="node14" class="node">
<title>13</title>
<ellipse fill="lightgrey" stroke="black" cx="140.51" cy="-162" rx="36" ry="18"/>
<text text-anchor="middle" x="140.51" y="-156.95" font-family="Times,serif" font-size="14.00">(2,0,2)</text>
</g>
<!-- 7&#45;&#45;13 -->
<!-- 16 -->
<g id="node17" class="node">
<title>16</title>
<ellipse fill="lightgrey" stroke="black" cx="140.51" cy="-90" rx="36" ry="18"/>
<text text-anchor="middle" x="140.51" y="-84.95" font-family="Times,serif" font-size="14.00">(2,1,2)</text>
</g>
<!-- 7&#45;&#45;16 -->
<g id="edge21" class="edge">
<title>7&#45;&#45;16</title>
<path fill="none" stroke="black" d="M33.07,-217.85C14.21,-199.59 -11.07,-168.32 5.51,-144 27.63,-111.54 72.92,-98.96 104.93,-94.09"/>
</g>
<!-- 8&#45;&#45;9 -->
<g id="edge15" class="edge">
<title>8&#45;&#45;9</title>
<path fill="none" stroke="black" d="M227.97,-291.17C208.86,-278.9 181.09,-261.06 162,-248.8"/>
</g>
<!-- 14 -->
<g id="node15" class="node">
<title>14</title>
<ellipse fill="lightgrey" stroke="black" cx="358.51" cy="-234" rx="36" ry="18"/>
<text text-anchor="middle" x="358.51" y="-228.95" font-family="Times,serif" font-size="14.00">(2,1,0)</text>
</g>
<!-- 8&#45;&#45;14 -->
<g id="edge16" class="edge">
<title>8&#45;&#45;14</title>
<path fill="none" stroke="black" d="M271.04,-291.17C290.15,-278.9 317.92,-261.06 337.02,-248.8"/>
</g>
<!-- 9&#45;&#45;10 -->
<g id="edge23" class="edge">
<title>9&#45;&#45;10</title>
<path fill="none" stroke="black" d="M121.86,-218.5C106.52,-206.56 84.86,-189.72 69.44,-177.73"/>
</g>
<!-- 15 -->
<g id="node16" class="node">
<title>15</title>
<ellipse fill="lightgrey" stroke="black" cx="230.51" cy="-162" rx="36" ry="18"/>
<text text-anchor="middle" x="230.51" y="-156.95" font-family="Times,serif" font-size="14.00">(2,1,1)</text>
</g>
<!-- 9&#45;&#45;15 -->
<g id="edge24" class="edge">
<title>9&#45;&#45;15</title>
<path fill="none" stroke="black" d="M159.15,-218.5C174.5,-206.56 196.15,-189.72 211.57,-177.73"/>
</g>
<!-- 10&#45;&#45;16 -->
<g id="edge28" class="edge">
<title>10&#45;&#45;16</title>
<path fill="none" stroke="black" d="M69.15,-146.5C84.5,-134.56 106.15,-117.72 121.57,-105.73"/>
</g>
<!-- 11&#45;&#45;12 -->
<!-- 11&#45;&#45;14 -->
<!-- 11&#45;&#45;15 -->
<g id="edge18" class="edge">
<title>11&#45;&#45;15</title>
<path fill="none" stroke="black" d="M328.33,-288.63C315.85,-270.56 294.85,-240.74 275.51,-216 265.54,-203.26 253.68,-189.33 244.64,-178.96"/>
</g>
<!-- 12&#45;&#45;13 -->
<g id="edge25" class="edge">
<title>12&#45;&#45;13</title>
<path fill="none" stroke="black" d="M211.86,-218.5C196.52,-206.56 174.86,-189.72 159.44,-177.73"/>
</g>
<!-- 12&#45;&#45;15 -->
<g id="edge26" class="edge">
<title>12&#45;&#45;15</title>
<path fill="none" stroke="black" d="M230.51,-215.7C230.51,-204.85 230.51,-190.92 230.51,-180.1"/>
</g>
<!-- 13&#45;&#45;16 -->
<g id="edge29" class="edge">
<title>13&#45;&#45;16</title>
<path fill="none" stroke="black" d="M140.51,-143.7C140.51,-132.85 140.51,-118.92 140.51,-108.1"/>
</g>
<!-- 14&#45;&#45;15 -->
<g id="edge27" class="edge">
<title>14&#45;&#45;15</title>
<path fill="none" stroke="black" d="M334.73,-220C311.74,-207.42 277.1,-188.48 254.16,-175.93"/>
</g>
<!-- 15&#45;&#45;16 -->
<g id="edge30" class="edge">
<title>15&#45;&#45;16</title>
<path fill="none" stroke="black" d="M211.86,-146.5C196.52,-134.56 174.86,-117.72 159.44,-105.73"/>
</g>
<!-- 17 -->
<g id="node18" class="node">
<title>17</title>
<ellipse fill="lightgrey" stroke="black" cx="140.51" cy="-18" rx="36" ry="18"/>
<text text-anchor="middle" x="140.51" y="-12.95" font-family="Times,serif" font-size="14.00">(2,1,3)</text>
</g>
<!-- 16&#45;&#45;17 -->
<g id="edge31" class="edge">
<title>16&#45;&#45;17</title>
<path fill="none" stroke="black" d="M140.51,-71.7C140.51,-60.85 140.51,-46.92 140.51,-36.1"/>
</g>
</g>
</svg>
